<svg data-v-423bf9ae="" xmlns="http://www.w3.org/2000/svg" viewBox="0 0 177.21649512409442 163" class="iconAbove"><!----><!----><!----><g data-v-423bf9ae="" id="f908b99d-32c2-43f8-b404-ac81f015dd50" fill="white" transform="matrix(5.15463924407959,0,0,5.15463924407959,-7.8866071701049805,79.13401794433594)"><path d="M1.53 16.27L2.11 16.27L2.11 11.65C2.66 12.82 3.78 13.57 5.21 13.57C7.27 13.57 8.72 12.04 8.72 9.91C8.72 7.77 7.25 6.24 5.21 6.24C3.78 6.24 2.66 6.99 2.11 8.18L2.11 6.26L1.53 6.26ZM2.11 9.91C2.11 8.11 3.37 6.79 5.12 6.79C6.89 6.79 8.15 8.11 8.15 9.91C8.15 11.72 6.89 13.02 5.12 13.02C3.37 13.02 2.11 11.72 2.11 9.91ZM10.85 13.55L11.44 13.55L11.44 9.60C11.56 7.91 12.54 6.85 14.15 6.85L14.15 6.24C12.85 6.27 11.90 6.92 11.44 8.09L11.44 6.26L10.85 6.26ZM14.97 9.90C14.97 12.05 16.49 13.57 18.56 13.57C20.65 13.57 22.16 12.05 22.16 9.90C22.16 7.77 20.65 6.24 18.56 6.24C16.49 6.24 14.97 7.77 14.97 9.90ZM15.54 9.91C15.54 8.08 16.81 6.80 18.56 6.80C20.33 6.80 21.59 8.08 21.59 9.91C21.59 11.75 20.33 13.02 18.56 13.02C16.81 13.02 15.54 11.75 15.54 9.91ZM23.48 6.94L24.54 6.94L24.54 11.54C24.54 12.91 25.16 13.58 26.19 13.57C26.74 13.57 27.26 13.37 27.72 13.05L27.50 12.57C27.12 12.84 26.68 12.99 26.26 12.99C25.51 13.01 25.10 12.50 25.10 11.47L25.10 6.94L27.58 6.94L27.58 6.44L25.10 6.44L25.10 4.63L24.54 4.63L24.54 6.44L23.48 6.44ZM28.71 9.90C28.71 12.05 30.24 13.57 32.31 13.57C34.40 13.57 35.91 12.05 35.91 9.90C35.91 7.77 34.40 6.24 32.31 6.24C30.24 6.24 28.71 7.77 28.71 9.90ZM29.29 9.91C29.29 8.08 30.56 6.80 32.31 6.80C34.08 6.80 35.34 8.08 35.34 9.91C35.34 11.75 34.08 13.02 32.31 13.02C30.56 13.02 29.29 11.75 29.29 9.91Z"></path></g><!----><g data-v-423bf9ae="" id="c1ddad73-b28f-49eb-b4d0-f9b6cfca31d0" transform="matrix(1,0,0,1,39.13652420043945,-4)" stroke="none" fill="white"><path d="M80.226 47.482a56.994 56.994 0 0 0 4.033-5.291c.025 0 .049.008.076.008a5.171 5.171 0 0 0 5.172-5.17c0-1.217-.438-2.32-1.141-3.203 1.104-3.788.863-7.079-.828-9.639-3.286-4.975-11.646-5.988-22.604-2.905l-.014-.032-.029.009a51.036 51.036 0 0 0-2.291-5.943 5.126 5.126 0 0 0 1.01-3.043 5.172 5.172 0 0 0-5.172-5.172c-.429 0-.84.067-1.238.166C54.976 5.135 52.547 4 50.001 4c-6.443 0-12.046 7.03-15.514 19.342-3.774-.799-7.284-1.226-10.417-1.226-7.052 0-11.858 2.058-13.907 5.956-2.957 5.629.543 13.748 9.584 22.424l-.019.023.022.021c-8.125 9.541-10.794 17.969-7.29 23.273 1.114 1.686 2.811 2.918 4.984 3.701.659 2.098 2.595 3.629 4.909 3.629 2.006 0 3.726-1.154 4.582-2.824 2.516-.262 5.241-.803 8.156-1.629C38.599 87.711 43.979 94 50.002 94c6.44 0 12.045-7.031 15.513-19.344 3.777.801 7.283 1.229 10.416 1.229 7.049 0 11.856-2.059 13.905-5.957 2.96-5.631-.549-13.76-9.61-22.446zM13.319 29.729c1.373-2.612 5.19-4.049 10.752-4.049 2.849 0 6.048.369 9.528 1.097-.894 3.869-1.539 8.018-1.934 12.361l-.003.002v.004a96.745 96.745 0 0 0-2.19 1.812c-.125.104-.256.207-.379.312a95.652 95.652 0 0 0-2.7 2.403c-.279.255-.54.515-.81.771a80.815 80.815 0 0 0-1.776 1.719c-.286.289-.567.576-.843.863-.273.281-.562.56-.826.842-7.549-7.279-10.915-14.145-8.819-18.137zm18.08 25.138c.008.191.006.383.016.576-.021-.016-.041-.033-.062-.047a83.46 83.46 0 0 1-3.108-2.303c-.331-.254-.644-.514-.971-.771a64.118 64.118 0 0 1-2.009-1.652c-.161-.135-.31-.27-.467-.404.164-.166.314-.336.476-.504a80.001 80.001 0 0 1 1.974-1.979c.323-.315.644-.633.979-.946a91.345 91.345 0 0 1 2.8-2.522c.105-.092.207-.186.312-.276-.003.062-.003.121-.003.181a110.24 110.24 0 0 0-.108 4.778c0 1.959.066 3.918.171 5.869zm-4.058 19.819c-.576-2.227-2.581-3.877-4.987-3.877-2.058 0-3.823 1.215-4.653 2.953-.908-.457-1.707-1.066-2.268-1.914-2.486-3.762.177-10.93 6.958-18.926.254.223.53.441.791.664l.816.684c.606.502 1.235 1 1.874 1.49.238.191.473.379.718.564a86.7 86.7 0 0 0 2.735 2.008c.102.072.209.145.314.215.702.49 1.407.98 2.135 1.459v.006h.002c.482 4.746 1.265 9.201 2.328 13.283a45.626 45.626 0 0 1-6.763 1.391zm36.015-45.032c.078.391.164.773.24 1.169.276 1.477.518 2.991.725 4.548l.02.169c-.158-.096-.324-.18-.486-.273-1.68-1-3.386-1.973-5.125-2.889a112.124 112.124 0 0 0-5.082-2.489c-.149-.068-.297-.15-.445-.218.053-.024.102-.053.152-.076a92.628 92.628 0 0 1 4.244-1.932c.379-.161.756-.299 1.129-.452a78.376 78.376 0 0 1 3.082-1.179c.223-.078.441-.151.664-.228l.172.664c.255 1.036.49 2.101.71 3.186zM50.001 7.565c1.4 0 2.812.625 4.182 1.779a5.143 5.143 0 0 0-.914 2.929 5.17 5.17 0 0 0 5.172 5.172c.396 0 .78-.055 1.151-.14a48.568 48.568 0 0 1 1.911 5.038c-.406.14-.824.306-1.236.453-.394.143-.787.285-1.188.436a83.42 83.42 0 0 0-2.506 1.005c-.322.135-.645.259-.967.4a91.484 91.484 0 0 0-3.539 1.615c-.104.05-.213.107-.316.161-.934.454-1.869.922-2.812 1.418l-.002-.001-.004.001c-3.744-1.514-7.427-2.75-10.979-3.683C40.88 13.869 45.428 7.565 50.001 7.565zM37.085 27.621a82.69 82.69 0 0 1 7.822 2.475 112.98 112.98 0 0 0-5.26 3.243 117.247 117.247 0 0 0-4.074 2.836 84.548 84.548 0 0 1 1.512-8.554zm-1.428 34.813a111.743 111.743 0 0 0 5.609 3.186c1.815.957 3.68 1.846 5.555 2.699a80.34 80.34 0 0 1-9.293 3.875 81.217 81.217 0 0 1-1.871-9.76zm14.344 28.002c-4.234 0-8.577-5.619-11.503-14.779 4.058-1.389 8.274-3.229 12.562-5.486h.006c3.746 1.514 7.428 2.752 10.981 3.686-2.925 10.272-7.47 16.579-12.046 16.579zm12.917-20.057a82.906 82.906 0 0 1-7.823-2.475 111.73 111.73 0 0 0 5.258-3.242 110.479 110.479 0 0 0 4.075-2.834 82.822 82.822 0 0 1-1.51 8.551zm1.993-13.359a108.296 108.296 0 0 1-6.524 4.672 109.306 109.306 0 0 1-7.521 4.539 107.791 107.791 0 0 1-7.942-3.766 105.558 105.558 0 0 1-7.739-4.49c-.074-.887-.132-1.777-.186-2.67-.032-.525-.076-1.051-.102-1.584-.07-1.568-.108-3.146-.108-4.721 0-1.412.032-2.825.088-4.232.019-.469.052-.928.079-1.393.04-.803.091-1.604.146-2.402a107.269 107.269 0 0 1 14.014-9.187c.853.361 1.705.74 2.552 1.128.418.188.837.366 1.25.562 1.399.658 2.79 1.344 4.159 2.062 1.398.736 2.783 1.509 4.148 2.305.422.247.836.512 1.252.766.795.479 1.584.961 2.357 1.457a107.255 107.255 0 0 1 .077 16.954zm.983-32.314c3.84-1.082 7.385-1.651 10.334-1.651 2.873-.001 6.646.535 8.338 3.099.967 1.463 1.146 3.447.615 5.79a5.216 5.216 0 0 0-.846-.086 5.171 5.171 0 0 0-5.172 5.172c0 1.518.666 2.867 1.706 3.813a53.475 53.475 0 0 1-3.263 4.235c-2.81-2.441-5.955-4.815-9.385-7.084v-.004h-.003a120.34 120.34 0 0 0-.343-2.91c-.027-.171-.037-.346-.062-.516a88.922 88.922 0 0 0-.596-3.752c-.066-.371-.143-.728-.213-1.094a86.974 86.974 0 0 0-.52-2.522 49.989 49.989 0 0 0-.307-1.282c-.096-.4-.18-.814-.283-1.208zm2.669 17.831a83.619 83.619 0 0 1 6.639 5.195 84.775 84.775 0 0 1-6.545 6.235c.072-1.656.115-3.316.115-4.969 0-2.16-.084-4.317-.209-6.461zm18.12 25.734C85.31 70.88 81.49 72.32 75.931 72.32c-2.85 0-6.048-.369-9.529-1.096.894-3.867 1.541-8.016 1.936-12.359l.003-.004v-.006c3.538-2.828 6.729-5.754 9.522-8.721 7.549 7.28 10.915 14.143 8.82 18.137z"></path></g><!----></svg>