<svg data-v-423bf9ae="" xmlns="http://www.w3.org/2000/svg" viewBox="0 0 177.21649512409442 60" class="font"><!----><!----><!----><g data-v-423bf9ae="" id="398bdd40-7ca2-4ba2-8c75-b8b938e76658" fill="white" transform="matrix(5.15463924407959,0,0,5.15463924407959,-7.8866071701049805,-23.865983963012695)"><path d="M1.53 16.27L2.11 16.27L2.11 11.65C2.66 12.82 3.78 13.57 5.21 13.57C7.27 13.57 8.72 12.04 8.72 9.91C8.72 7.77 7.25 6.24 5.21 6.24C3.78 6.24 2.66 6.99 2.11 8.18L2.11 6.26L1.53 6.26ZM2.11 9.91C2.11 8.11 3.37 6.79 5.12 6.79C6.89 6.79 8.15 8.11 8.15 9.91C8.15 11.72 6.89 13.02 5.12 13.02C3.37 13.02 2.11 11.72 2.11 9.91ZM10.85 13.55L11.44 13.55L11.44 9.60C11.56 7.91 12.54 6.85 14.15 6.85L14.15 6.24C12.85 6.27 11.90 6.92 11.44 8.09L11.44 6.26L10.85 6.26ZM14.97 9.90C14.97 12.05 16.49 13.57 18.56 13.57C20.65 13.57 22.16 12.05 22.16 9.90C22.16 7.77 20.65 6.24 18.56 6.24C16.49 6.24 14.97 7.77 14.97 9.90ZM15.54 9.91C15.54 8.08 16.81 6.80 18.56 6.80C20.33 6.80 21.59 8.08 21.59 9.91C21.59 11.75 20.33 13.02 18.56 13.02C16.81 13.02 15.54 11.75 15.54 9.91ZM23.48 6.94L24.54 6.94L24.54 11.54C24.54 12.91 25.16 13.58 26.19 13.57C26.74 13.57 27.26 13.37 27.72 13.05L27.50 12.57C27.12 12.84 26.68 12.99 26.26 12.99C25.51 13.01 25.10 12.50 25.10 11.47L25.10 6.94L27.58 6.94L27.58 6.44L25.10 6.44L25.10 4.63L24.54 4.63L24.54 6.44L23.48 6.44ZM28.71 9.90C28.71 12.05 30.24 13.57 32.31 13.57C34.40 13.57 35.91 12.05 35.91 9.90C35.91 7.77 34.40 6.24 32.31 6.24C30.24 6.24 28.71 7.77 28.71 9.90ZM29.29 9.91C29.29 8.08 30.56 6.80 32.31 6.80C34.08 6.80 35.34 8.08 35.34 9.91C35.34 11.75 34.08 13.02 32.31 13.02C30.56 13.02 29.29 11.75 29.29 9.91Z"></path></g><!----><!----></svg>